<?xml version="1.0" encoding="UTF-8"?>
<svg xmlns="http://www.w3.org/2000/svg" viewBox="0 0 400 400" width="400" height="400">
<defs>
  <linearGradient id="fab" x1="0%" y1="0%" x2="100%" y2="100%">
    <stop offset="0%" stop-color="#ffffff"/>
    <stop offset="55%" stop-color="#f4f4f0"/>
    <stop offset="100%" stop-color="#e4e4de"/>
  </linearGradient>
  <linearGradient id="fabD" x1="0%" y1="0%" x2="100%" y2="0%">
    <stop offset="0%" stop-color="#d8d8d2"/>
    <stop offset="100%" stop-color="#f8f8f6"/>
  </linearGradient>
  <linearGradient id="brim" x1="0%" y1="0%" x2="0%" y2="100%">
    <stop offset="0%" stop-color="#f0f0ec"/>
    <stop offset="100%" stop-color="#d0d0c8"/>
  </linearGradient>
  <linearGradient id="cer" x1="0%" y1="0%" x2="100%" y2="100%">
    <stop offset="0%" stop-color="#ffffff"/>
    <stop offset="100%" stop-color="#e8ecf0"/>
  </linearGradient>
  <linearGradient id="paper" x1="0%" y1="0%" x2="100%" y2="100%">
    <stop offset="0%" stop-color="#ffffff"/>
    <stop offset="100%" stop-color="#f0f2f5"/>
  </linearGradient>
  <linearGradient id="kraft" x1="0%" y1="0%" x2="100%" y2="100%">
    <stop offset="0%" stop-color="#dcc9a8"/>
    <stop offset="100%" stop-color="#a08050"/>
  </linearGradient>
  <linearGradient id="metal" x1="0%" y1="0%" x2="0%" y2="100%">
    <stop offset="0%" stop-color="#e8ecf0"/>
    <stop offset="100%" stop-color="#8898a8"/>
  </linearGradient>
  <filter id="sh" x="-20%" y="-20%" width="140%" height="140%">
    <feDropShadow dx="0" dy="8" stdDeviation="10" flood-color="#000" flood-opacity="0.18"/>
  </filter>
</defs>
<rect width="400" height="400" fill="none"/>
<ellipse cx="200" cy="360" rx="120" ry="14" fill="#000" opacity="0.12"/>
<g filter="url(#sh)">
    <rect x="72" y="95" width="256" height="165" rx="3" fill="#f5f5f5" stroke="#bbb" stroke-width="0.8"/>
    <pattern id="meshp" width="8" height="8" patternUnits="userSpaceOnUse">
      <rect width="8" height="8" fill="#f0f0f0"/>
      <circle cx="4" cy="4" r="1.5" fill="none" stroke="#ccc" stroke-width="0.5"/>
    </pattern>
    <rect x="72" y="95" width="256" height="165" fill="url(#meshp)" opacity="0.8"/>
    <circle cx="88" cy="108" r="7" fill="#ccc" stroke="#888" stroke-width="0.8"/><circle cx="88" cy="108" r="2.5" fill="#666"/>
    <circle cx="312" cy="108" r="7" fill="#ccc" stroke="#888" stroke-width="0.8"/><circle cx="312" cy="108" r="2.5" fill="#666"/>
    <circle cx="88" cy="247" r="7" fill="#ccc" stroke="#888" stroke-width="0.8"/><circle cx="88" cy="247" r="2.5" fill="#666"/>
    <circle cx="312" cy="247" r="7" fill="#ccc" stroke="#888" stroke-width="0.8"/><circle cx="312" cy="247" r="2.5" fill="#666"/>
    <rect x="108" y="130" width="184" height="95" rx="2" fill="#000" opacity="0.04"/>
  </g>
</svg>