<?xml version="1.0" encoding="UTF-8"?>
<svg xmlns="http://www.w3.org/2000/svg" viewBox="0 0 400 400" width="400" height="400">
<defs>
  <linearGradient id="fab" x1="0%" y1="0%" x2="100%" y2="100%">
    <stop offset="0%" stop-color="#ffffff"/>
    <stop offset="55%" stop-color="#f4f4f0"/>
    <stop offset="100%" stop-color="#e4e4de"/>
  </linearGradient>
  <linearGradient id="fabD" x1="0%" y1="0%" x2="100%" y2="0%">
    <stop offset="0%" stop-color="#d8d8d2"/>
    <stop offset="100%" stop-color="#f8f8f6"/>
  </linearGradient>
  <linearGradient id="brim" x1="0%" y1="0%" x2="0%" y2="100%">
    <stop offset="0%" stop-color="#f0f0ec"/>
    <stop offset="100%" stop-color="#d0d0c8"/>
  </linearGradient>
  <linearGradient id="cer" x1="0%" y1="0%" x2="100%" y2="100%">
    <stop offset="0%" stop-color="#ffffff"/>
    <stop offset="100%" stop-color="#e8ecf0"/>
  </linearGradient>
  <linearGradient id="paper" x1="0%" y1="0%" x2="100%" y2="100%">
    <stop offset="0%" stop-color="#ffffff"/>
    <stop offset="100%" stop-color="#f0f2f5"/>
  </linearGradient>
  <linearGradient id="kraft" x1="0%" y1="0%" x2="100%" y2="100%">
    <stop offset="0%" stop-color="#dcc9a8"/>
    <stop offset="100%" stop-color="#a08050"/>
  </linearGradient>
  <linearGradient id="metal" x1="0%" y1="0%" x2="0%" y2="100%">
    <stop offset="0%" stop-color="#e8ecf0"/>
    <stop offset="100%" stop-color="#8898a8"/>
  </linearGradient>
  <filter id="sh" x="-20%" y="-20%" width="140%" height="140%">
    <feDropShadow dx="0" dy="8" stdDeviation="10" flood-color="#000" flood-opacity="0.18"/>
  </filter>
</defs>
<rect width="400" height="400" fill="none"/>
<ellipse cx="200" cy="360" rx="120" ry="14" fill="#000" opacity="0.12"/>
<g filter="url(#sh)">
    <!-- Hoodie -->
    <path d="M118 105 Q118 62 200 55 Q282 62 282 105 L318 128 L338 188 L292 205 L272 148 L272 315 L128 315 L128 148 L108 205 L62 188 L82 128 Z" fill="url(#fab)" stroke="#bbb" stroke-width="0.8"/>
    <path d="M155 55 Q200 38 245 55 Q200 88 155 55" fill="#e0e0dc" stroke="#bbb" stroke-width="0.7"/>
    <path d="M155 55 L145 95 M245 55 L255 95" fill="none" stroke="#ccc" stroke-width="1"/>
    <rect x="178" y="72" width="44" height="12" rx="6" fill="#ddd" stroke="#bbb" stroke-width="0.5"/>
    <path d="M128 148 L62 188 M272 148 L338 188" fill="none" stroke="#ccc" stroke-width="16" stroke-linecap="round" opacity="0.5"/>
    <rect x="148" y="165" width="104" height="72" rx="4" fill="#000" opacity="0.04" stroke="#ccc" stroke-dasharray="4 3"/>
  </g>
</svg>